<svg width="90" height="35" viewBox="0 0 90 35" fill="none" xmlns="http://www.w3.org/2000/svg">
<path d="M16.2 0.959998H25C24.72 2.72 24.68 3.92 24.68 7.4V24.08C24.68 27.36 23.8 29.88 21.92 31.76C19.88 33.84 16.64 35 12.72 35C8.36 35 5.08 33.76 2.84 31.28C1.68 30 1.12 29 0.2 26.6L8 23.92C8.84 27.04 10.04 28.16 12.6 28.16C15.28 28.16 16.52 26.84 16.52 24.08V7.44C16.52 4.04 16.44 2.8 16.2 0.959998ZM43.6609 0.959998H52.4609C52.1809 2.72 52.1409 3.92 52.1409 7.4V24.08C52.1409 27.36 51.2609 29.88 49.3809 31.76C47.3409 33.84 44.1009 35 40.1809 35C35.8209 35 32.5409 33.76 30.3009 31.28C29.1409 30 28.5809 29 27.6609 26.6L35.4609 23.92C36.3009 27.04 37.5009 28.16 40.0609 28.16C42.7409 28.16 43.9809 26.84 43.9809 24.08V7.44C43.9809 4.04 43.9009 2.8 43.6609 0.959998ZM89.4419 34.24H80.0819C79.7619 32.32 79.5219 31.28 79.1219 29.92L78.0419 26.52H66.6419L65.5619 29.92C65.0419 31.52 64.7619 32.76 64.5619 34.24H55.2019C55.8019 33.04 56.1619 32.08 57.1219 29.36L65.7619 5.28C66.4819 3.32 66.8419 2.12 67.0419 0.959998H77.4819C77.7619 2.12 78.0419 3.16 78.8419 5.28L87.5219 29.36C88.2819 31.48 88.9219 33.12 89.4419 34.24ZM76.0819 19.8L72.2819 7.8L68.5619 19.8H76.0819Z" fill="white"/>
</svg>
